<svg width="185" height="240" viewBox="0 0 185 240" fill="none" xmlns="http://www.w3.org/2000/svg">
<rect x="88" y="13" width="7" height="30" fill="#DEE9E1"/>
<rect x="83" width="17" height="18" rx="8.5" fill="#825252"/>
<rect x="14" y="30" width="158" height="179" rx="79" fill="#F7F7F7"/>
<rect x="25" y="64" width="133" height="78" rx="39" fill="#FDD3D3"/>
<ellipse rx="22.8974" ry="26.2856" transform="matrix(0.961604 0.274439 -0.243966 0.969784 60.431 104.775)" fill="white"/>
<ellipse rx="22.8974" ry="26.2856" transform="matrix(0.961604 -0.274439 0.243966 0.969784 122.569 104.775)" fill="white"/>
<circle cx="109" cy="170" r="5" fill="#AB9B9B"/>
<circle cx="123" cy="165" r="5" fill="#AB9B9B"/>
<circle cx="61.8855" cy="106.886" r="14.8855" fill="#404040"/>
<circle cx="121.886" cy="106.886" r="14.8855" fill="#404040"/>
<rect y="187" width="185" height="53" rx="20" fill="#825252"/>
<path d="M40.35 205.075V222.5H38.075V214.6H29.2V222.5H26.925V205.075H29.2V212.725H38.075V205.075H40.35ZM43.3846 215.6C43.3846 214.2 43.6679 212.975 44.2346 211.925C44.8012 210.858 45.5762 210.033 46.5596 209.45C47.5596 208.867 48.6679 208.575 49.8846 208.575C51.0846 208.575 52.1262 208.833 53.0096 209.35C53.8929 209.867 54.5512 210.517 54.9846 211.3V208.8H57.2846V222.5H54.9846V219.95C54.5346 220.75 53.8596 221.417 52.9596 221.95C52.0762 222.467 51.0429 222.725 49.8596 222.725C48.6429 222.725 47.5429 222.425 46.5596 221.825C45.5762 221.225 44.8012 220.383 44.2346 219.3C43.6679 218.217 43.3846 216.983 43.3846 215.6ZM54.9846 215.625C54.9846 214.592 54.7762 213.692 54.3596 212.925C53.9429 212.158 53.3762 211.575 52.6596 211.175C51.9596 210.758 51.1846 210.55 50.3346 210.55C49.4846 210.55 48.7096 210.75 48.0096 211.15C47.3096 211.55 46.7512 212.133 46.3346 212.9C45.9179 213.667 45.7096 214.567 45.7096 215.6C45.7096 216.65 45.9179 217.567 46.3346 218.35C46.7512 219.117 47.3096 219.708 48.0096 220.125C48.7096 220.525 49.4846 220.725 50.3346 220.725C51.1846 220.725 51.9596 220.525 52.6596 220.125C53.3762 219.708 53.9429 219.117 54.3596 218.35C54.7762 217.567 54.9846 216.658 54.9846 215.625ZM48.7596 206.95C48.3929 206.95 48.0762 206.825 47.8096 206.575C47.5596 206.325 47.4346 206.017 47.4346 205.65C47.4346 205.283 47.5596 204.975 47.8096 204.725C48.0762 204.458 48.3929 204.325 48.7596 204.325C49.1096 204.325 49.4096 204.458 49.6596 204.725C49.9262 204.975 50.0596 205.283 50.0596 205.65C50.0596 206.017 49.9262 206.325 49.6596 206.575C49.4096 206.825 49.1096 206.95 48.7596 206.95ZM52.8096 206.95C52.4429 206.95 52.1346 206.825 51.8846 206.575C51.6346 206.325 51.5096 206.017 51.5096 205.65C51.5096 205.283 51.6346 204.975 51.8846 204.725C52.1346 204.458 52.4429 204.325 52.8096 204.325C53.1762 204.325 53.4846 204.458 53.7346 204.725C54.0012 204.975 54.1346 205.283 54.1346 205.65C54.1346 206.017 54.0012 206.325 53.7346 206.575C53.4846 206.825 53.1762 206.95 52.8096 206.95ZM63.4041 204V222.5H61.1291V204H63.4041ZM72.1314 222.725C71.0814 222.725 70.1398 222.55 69.3064 222.2C68.4731 221.833 67.8148 221.333 67.3314 220.7C66.8481 220.05 66.5814 219.308 66.5314 218.475H68.8814C68.9481 219.158 69.2648 219.717 69.8314 220.15C70.4148 220.583 71.1731 220.8 72.1064 220.8C72.9731 220.8 73.6564 220.608 74.1564 220.225C74.6564 219.842 74.9064 219.358 74.9064 218.775C74.9064 218.175 74.6398 217.733 74.1064 217.45C73.5731 217.15 72.7481 216.858 71.6314 216.575C70.6148 216.308 69.7814 216.042 69.1314 215.775C68.4981 215.492 67.9481 215.083 67.4814 214.55C67.0314 214 66.8064 213.283 66.8064 212.4C66.8064 211.7 67.0148 211.058 67.4314 210.475C67.8481 209.892 68.4398 209.433 69.2064 209.1C69.9731 208.75 70.8481 208.575 71.8314 208.575C73.3481 208.575 74.5731 208.958 75.5064 209.725C76.4398 210.492 76.9398 211.542 77.0064 212.875H74.7314C74.6814 212.158 74.3898 211.583 73.8564 211.15C73.3398 210.717 72.6398 210.5 71.7564 210.5C70.9398 210.5 70.2898 210.675 69.8064 211.025C69.3231 211.375 69.0814 211.833 69.0814 212.4C69.0814 212.85 69.2231 213.225 69.5064 213.525C69.8064 213.808 70.1731 214.042 70.6064 214.225C71.0564 214.392 71.6731 214.583 72.4564 214.8C73.4398 215.067 74.2398 215.333 74.8564 215.6C75.4731 215.85 75.9981 216.233 76.4314 216.75C76.8814 217.267 77.1148 217.942 77.1314 218.775C77.1314 219.525 76.9231 220.2 76.5064 220.8C76.0898 221.4 75.4981 221.875 74.7314 222.225C73.9814 222.558 73.1148 222.725 72.1314 222.725ZM86.318 222.725C85.0346 222.725 83.868 222.433 82.818 221.85C81.7846 221.267 80.968 220.442 80.368 219.375C79.7846 218.292 79.493 217.042 79.493 215.625C79.493 214.225 79.793 212.992 80.393 211.925C81.0096 210.842 81.843 210.017 82.893 209.45C83.943 208.867 85.118 208.575 86.418 208.575C87.718 208.575 88.893 208.867 89.943 209.45C90.993 210.017 91.818 210.833 92.418 211.9C93.0346 212.967 93.343 214.208 93.343 215.625C93.343 217.042 93.0263 218.292 92.393 219.375C91.7763 220.442 90.9346 221.267 89.868 221.85C88.8013 222.433 87.618 222.725 86.318 222.725ZM86.318 220.725C87.1346 220.725 87.9013 220.533 88.618 220.15C89.3346 219.767 89.9096 219.192 90.343 218.425C90.793 217.658 91.018 216.725 91.018 215.625C91.018 214.525 90.8013 213.592 90.368 212.825C89.9346 212.058 89.368 211.492 88.668 211.125C87.968 210.742 87.2096 210.55 86.393 210.55C85.5596 210.55 84.793 210.742 84.093 211.125C83.4096 211.492 82.8596 212.058 82.443 212.825C82.0263 213.592 81.818 214.525 81.818 215.625C81.818 216.742 82.018 217.683 82.418 218.45C82.8346 219.217 83.3846 219.792 84.068 220.175C84.7513 220.542 85.5013 220.725 86.318 220.725Z" fill="#FBEDED"/>
<path d="M102.75 222.675C101.533 222.675 100.433 222.467 99.45 222.05C98.4833 221.633 97.7167 221.033 97.15 220.25C96.5833 219.467 96.2917 218.542 96.275 217.475H100.025C100.075 218.192 100.325 218.758 100.775 219.175C101.242 219.592 101.875 219.8 102.675 219.8C103.492 219.8 104.133 219.608 104.6 219.225C105.067 218.825 105.3 218.308 105.3 217.675C105.3 217.158 105.142 216.733 104.825 216.4C104.508 216.067 104.108 215.808 103.625 215.625C103.158 215.425 102.508 215.208 101.675 214.975C100.542 214.642 99.6167 214.317 98.9 214C98.2 213.667 97.5917 213.175 97.075 212.525C96.575 211.858 96.325 210.975 96.325 209.875C96.325 208.842 96.5833 207.942 97.1 207.175C97.6167 206.408 98.3417 205.825 99.275 205.425C100.208 205.008 101.275 204.8 102.475 204.8C104.275 204.8 105.733 205.242 106.85 206.125C107.983 206.992 108.608 208.208 108.725 209.775H104.875C104.842 209.175 104.583 208.683 104.1 208.3C103.633 207.9 103.008 207.7 102.225 207.7C101.542 207.7 100.992 207.875 100.575 208.225C100.175 208.575 99.975 209.083 99.975 209.75C99.975 210.217 100.125 210.608 100.425 210.925C100.742 211.225 101.125 211.475 101.575 211.675C102.042 211.858 102.692 212.075 103.525 212.325C104.658 212.658 105.583 212.992 106.3 213.325C107.017 213.658 107.633 214.158 108.15 214.825C108.667 215.492 108.925 216.367 108.925 217.45C108.925 218.383 108.683 219.25 108.2 220.05C107.717 220.85 107.008 221.492 106.075 221.975C105.142 222.442 104.033 222.675 102.75 222.675ZM111.059 215.525C111.059 214.125 111.334 212.883 111.884 211.8C112.451 210.717 113.209 209.883 114.159 209.3C115.126 208.717 116.201 208.425 117.384 208.425C118.418 208.425 119.318 208.633 120.084 209.05C120.868 209.467 121.493 209.992 121.959 210.625V208.65H125.484V222.5H121.959V220.475C121.509 221.125 120.884 221.667 120.084 222.1C119.301 222.517 118.393 222.725 117.359 222.725C116.193 222.725 115.126 222.425 114.159 221.825C113.209 221.225 112.451 220.383 111.884 219.3C111.334 218.2 111.059 216.942 111.059 215.525ZM121.959 215.575C121.959 214.725 121.793 214 121.459 213.4C121.126 212.783 120.676 212.317 120.109 212C119.543 211.667 118.934 211.5 118.284 211.5C117.634 211.5 117.034 211.658 116.484 211.975C115.934 212.292 115.484 212.758 115.134 213.375C114.801 213.975 114.634 214.692 114.634 215.525C114.634 216.358 114.801 217.092 115.134 217.725C115.484 218.342 115.934 218.817 116.484 219.15C117.051 219.483 117.651 219.65 118.284 219.65C118.934 219.65 119.543 219.492 120.109 219.175C120.676 218.842 121.126 218.375 121.459 217.775C121.793 217.158 121.959 216.425 121.959 215.575ZM146.103 208.45C147.803 208.45 149.169 208.975 150.203 210.025C151.253 211.058 151.778 212.508 151.778 214.375V222.5H148.278V214.85C148.278 213.767 148.003 212.942 147.453 212.375C146.903 211.792 146.153 211.5 145.203 211.5C144.253 211.5 143.494 211.792 142.928 212.375C142.378 212.942 142.103 213.767 142.103 214.85V222.5H138.603V214.85C138.603 213.767 138.328 212.942 137.778 212.375C137.228 211.792 136.478 211.5 135.528 211.5C134.561 211.5 133.794 211.792 133.228 212.375C132.678 212.942 132.403 213.767 132.403 214.85V222.5H128.903V208.65H132.403V210.325C132.853 209.742 133.428 209.283 134.128 208.95C134.844 208.617 135.628 208.45 136.478 208.45C137.561 208.45 138.528 208.683 139.378 209.15C140.228 209.6 140.886 210.25 141.353 211.1C141.803 210.3 142.453 209.658 143.303 209.175C144.169 208.692 145.103 208.45 146.103 208.45ZM156.649 222.675C156.016 222.675 155.491 222.483 155.074 222.1C154.674 221.7 154.474 221.208 154.474 220.625C154.474 220.042 154.674 219.558 155.074 219.175C155.491 218.775 156.016 218.575 156.649 218.575C157.266 218.575 157.774 218.775 158.174 219.175C158.574 219.558 158.774 220.042 158.774 220.625C158.774 221.208 158.574 221.7 158.174 222.1C157.774 222.483 157.266 222.675 156.649 222.675Z" fill="#FBEDED"/>
</svg>
